<svg width="1208" height="1208" viewBox="0 0 1208 1208" fill="none" xmlns="http://www.w3.org/2000/svg">
<path d="M54.9092 0L54.9092 1208M108.742 0L108.742 1208M162.574 0L162.574 1208M216.407 0L216.406 1208M270.239 0L270.239 1208M324.072 0L324.072 1208M377.904 0L377.904 1208M431.737 0L431.737 1208M485.569 0L485.569 1208M539.402 0L539.402 1208M593.234 0L593.234 1208M647.067 0L647.066 1208M700.899 0L700.899 1208M754.732 0L754.732 1208M808.564 0L808.564 1208M862.397 0L862.397 1208M916.229 0L916.229 1208M970.062 0L970.062 1208M1023.89 0L1023.89 1208M1077.73 0L1077.73 1208M1131.56 0V1208M1208 66.7518L0.000117721 66.7516M1208 120.584L0.000115368 120.584M1208 174.417L0.000113015 174.417M1208 228.249L0.000170792 228.249M1208 282.082L0.000108309 282.081M1208 335.914L0.000105955 335.914M1208 389.747L0.000103602 389.747M1208 443.579L0.000101249 443.579M1208 497.412L0.000153428 497.412M1208 551.244L9.65431e-05 551.244M1208 605.077L9.419e-05 605.077M1208 658.909L9.18369e-05 658.909M1208 712.742L8.94838e-05 712.742M1208 766.574L0 766.574M1208 820.407L8.47776e-05 820.407M1208 874.239L8.24245e-05 874.239M1208 928.072L8.00714e-05 928.072M1208 981.904L7.77183e-05 981.904M1208 1035.74L0.000173058 1035.74M1208 1089.57L7.30121e-05 1089.57M1208 1143.4H7.0659e-05" stroke="black" stroke-opacity="0.1" stroke-width="2"/>
</svg>
