<svg width="1135" height="1138" viewBox="0 0 1135 1138" fill="none" xmlns="http://www.w3.org/2000/svg">
<g clip-path="url(#clip0_1008_1201)">
<path d="M30.9092 -36V1172M84.742 -36V1172M138.574 -36V1172M192.407 -36L192.406 1172M246.239 -36V1172M300.072 -36V1172M353.904 -36V1172M407.737 -36V1172M461.569 -36V1172M515.402 -36V1172M569.234 -36V1172M623.067 -36L623.066 1172M676.899 -36V1172M730.732 -36V1172M784.564 -36V1172M838.397 -36V1172M892.229 -36V1172M946.062 -36V1172M999.89 -36V1172M1053.73 -36V1172M1107.56 -36V1172M1184 30.7518L-23.9999 30.7516M1184 84.584H-23.9999M1184 138.417H-23.9999M1184 192.249H-23.9998M1184 246.082L-23.9999 246.081M1184 299.914H-23.9999M1184 353.747H-23.9999M1184 407.579H-23.9999M1184 461.412H-23.9998M1184 515.244H-23.9999M1184 569.077H-23.9999M1184 622.909H-23.9999M1184 676.742H-23.9999M1184 730.574H-24M1184 784.407H-23.9999M1184 838.239H-23.9999M1184 892.072H-23.9999M1184 945.904H-23.9999M1184 999.74H-23.9998M1184 1053.57H-23.9999M1184 1107.4H-23.9999" stroke="black" stroke-opacity="0.1" stroke-width="2"/>
</g>
<defs>
<clipPath id="clip0_1008_1201">
<rect width="1135" height="1138" fill="white"/>
</clipPath>
</defs>
</svg>
